<!DOCTYPE svg PUBLIC "-//W3C//DTD SVG 20010904//EN" "http://www.w3.org/TR/2001/REC-SVG-20010904/DTD/svg10.dtd">
<svg version="1.0" xmlns="http://www.w3.org/2000/svg" width="256px" height="256px" viewBox="0 0 2560 2560" preserveAspectRatio="xMidYMid meet">
<g id="layer101" fill="#ffffff" stroke="none">
 <path d="M1095 2549 c-209 -30 -414 -114 -586 -240 -92 -68 -235 -219 -302 -320 -139 -210 -207 -440 -207 -703 0 -151 19 -273 61 -400 144 -431 504 -752 949 -847 147 -31 372 -31 517 0 454 96 816 420 957 856 59 183 75 428 41 620 -108 606 -644 1050 -1260 1044 -60 -1 -137 -5 -170 -10z m371 -94 c464 -80 838 -425 954 -881 69 -271 38 -549 -90 -809 -70 -143 -128 -222 -245 -333 -472 -454 -1214 -438 -1667 36 -130 136 -213 275 -273 455 -46 140 -59 239 -52 416 6 187 35 299 117 466 66 135 117 207 221 312 171 175 395 294 635 337 106 19 291 19 400 1z"/>
 <path d="M1189 2083 c-17 -15 -38 -42 -45 -60 -8 -18 -28 -40 -45 -48 -22 -12 -29 -22 -27 -38 2 -18 9 -22 40 -21 29 1 38 -4 47 -22 13 -29 80 -64 121 -64 41 0 108 35 121 64 9 18 18 23 47 22 31 -1 38 3 40 21 2 16 -5 26 -27 38 -17 8 -37 30 -45 48 -7 18 -28 45 -45 60 -27 23 -42 27 -91 27 -49 0 -64 -4 -91 -27z m143 -60 c24 -22 24 -77 -2 -103 -44 -44 -120 -11 -120 52 0 17 7 40 17 50 20 23 80 24 105 1z"/>
 <path d="M948 1905 c-53 -28 -61 -37 -52 -58 10 -27 33 -27 89 0 55 27 67 47 43 71 -16 16 -26 15 -80 -13z"/>
 <path d="M1532 1918 c-24 -24 -12 -44 43 -71 56 -27 79 -27 89 0 8 21 2 28 -50 57 -52 29 -65 31 -82 14z"/>
 <path d="M567 1843 c-15 -3 -45 -21 -67 -42 -38 -36 -40 -41 -40 -99 0 -54 4 -65 31 -96 16 -19 39 -38 50 -41 16 -6 19 -16 19 -79 0 -80 13 -103 50 -91 18 6 20 15 20 84 0 73 2 79 24 89 20 9 29 7 49 -9 29 -22 57 -25 75 -7 20 20 14 38 -23 59 -29 17 -33 24 -25 39 6 10 10 32 10 49 0 27 6 34 50 56 54 27 66 56 30 75 -15 8 -30 5 -69 -14 -43 -23 -51 -24 -62 -10 -24 29 -72 44 -122 37z m83 -95 c60 -64 -36 -161 -102 -101 -23 20 -24 80 -1 105 23 25 77 24 103 -4z"/>
 <path d="M1924 1839 c-17 -5 -39 -18 -48 -28 -18 -20 -19 -20 -67 5 -39 19 -54 22 -69 14 -36 -19 -24 -48 30 -75 45 -23 50 -29 50 -59 0 -20 -8 -40 -20 -51 -24 -22 -23 -53 2 -69 14 -8 21 -7 34 6 16 16 20 15 55 -5 32 -18 39 -28 39 -53 0 -69 62 -69 68 -1 2 25 9 38 22 42 10 3 33 22 49 41 27 31 31 42 31 96 0 58 -2 63 -40 100 -23 21 -49 38 -60 38 -10 0 -24 2 -32 4 -7 2 -27 0 -44 -5z m88 -86 c23 -20 24 -80 1 -105 -38 -43 -123 -7 -123 52 0 58 78 93 122 53z"/>
 <path d="M873 1564 c-40 -20 -73 -41 -73 -48 0 -7 -8 -30 -19 -52 -47 -99 -31 -207 43 -280 26 -26 42 -53 44 -70 1 -16 7 -33 12 -38 6 -6 -1 -19 -22 -36 -27 -23 -29 -29 -19 -48 15 -28 35 -28 72 -1 25 18 32 19 46 7 10 -8 42 -13 82 -13 60 0 70 -3 106 -32 67 -56 122 -76 200 -77 85 -1 158 30 219 93 l39 40 40 -26 c46 -29 72 -22 72 18 0 17 -11 30 -42 47 -36 20 -41 26 -33 42 6 10 10 30 10 43 0 18 8 28 29 36 38 16 87 68 105 113 21 49 21 150 0 190 -13 25 -14 36 -5 50 26 42 -5 78 -45 51 -20 -13 -26 -12 -50 4 -26 16 -60 18 -384 21 l-355 3 -72 -37z m770 -48 c43 -18 83 -66 91 -110 15 -79 -35 -167 -105 -186 -34 -9 -39 -14 -39 -40 0 -53 -39 -136 -80 -174 -37 -34 -118 -66 -166 -66 -38 0 -122 32 -155 59 l-31 26 20 35 c27 48 37 97 22 115 -28 33 -70 6 -70 -44 0 -11 -11 -33 -24 -48 -20 -23 -32 -28 -71 -28 -60 0 -95 35 -95 96 0 35 -4 41 -34 55 -20 10 -43 34 -57 58 -52 92 -12 218 81 255 41 16 673 14 713 -3z"/>
 <path d="M1937 1454 c-4 -4 -7 -36 -7 -71 0 -50 4 -65 16 -70 34 -13 49 11 49 78 0 61 -1 64 -25 67 -14 2 -29 0 -33 -4z"/>
 <path d="M567 1344 c-4 -4 -7 -36 -7 -70 0 -60 1 -64 26 -70 37 -9 45 5 42 77 -3 60 -5 64 -28 67 -14 2 -29 0 -33 -4z"/>
 <path d="M1934 1256 c-3 -7 -4 -40 -2 -72 3 -58 3 -59 33 -59 30 0 30 1 33 58 2 35 -2 64 -9 73 -15 18 -48 18 -55 0z"/>
 <path d="M572 1098 c-7 -7 -12 -33 -12 -59 0 -42 -3 -48 -30 -59 -49 -20 -70 -59 -70 -128 0 -66 19 -101 70 -127 37 -19 109 -19 136 -1 18 13 27 12 80 -7 66 -23 94 -19 94 13 0 16 -14 27 -53 45 l-52 24 3 43 c3 37 9 47 38 66 62 40 30 100 -34 62 -31 -19 -31 -19 -71 3 -38 21 -41 25 -41 68 0 44 -13 69 -35 69 -6 0 -16 -5 -23 -12z m81 -200 c26 -30 22 -73 -9 -97 -34 -26 -68 -27 -94 -1 -20 20 -27 74 -12 96 25 38 84 39 115 2z"/>
 <path d="M1942 1098 c-7 -7 -12 -32 -12 -57 0 -43 -3 -47 -39 -67 -34 -19 -41 -19 -65 -7 -67 35 -103 -21 -40 -62 26 -16 33 -28 36 -63 l3 -43 -52 -24 c-39 -18 -53 -29 -53 -45 0 -32 28 -36 94 -13 53 19 62 20 80 7 27 -18 99 -18 136 1 51 26 70 61 70 127 0 69 -21 108 -70 128 -27 11 -30 17 -30 59 0 46 -13 71 -35 71 -6 0 -16 -5 -23 -12z m51 -179 c30 -16 37 -28 37 -66 0 -65 -62 -93 -114 -52 -41 32 -31 99 17 119 30 12 35 12 60 -1z"/>
 <path d="M1207 729 c-25 -13 -45 -34 -55 -57 -13 -28 -23 -37 -42 -37 -20 0 -26 -6 -28 -27 -3 -22 3 -30 29 -43 17 -9 48 -34 69 -56 35 -37 40 -39 100 -39 60 0 64 2 105 43 23 23 57 50 74 59 26 14 29 20 22 40 -5 15 -16 23 -32 23 -18 0 -28 9 -41 37 -19 43 -79 78 -130 78 -18 -1 -50 -10 -71 -21z m123 -69 c24 -24 26 -77 3 -102 -20 -23 -80 -24 -105 -1 -24 22 -24 77 2 103 11 11 33 20 50 20 17 0 39 -9 50 -20z"/>
 <path d="M917 708 c-13 -7 -26 -58 -14 -58 1 0 26 -9 55 -19 63 -23 84 -19 80 17 -2 20 -14 31 -54 48 -35 15 -55 19 -67 12z"/>
 <path d="M1573 694 c-43 -19 -53 -27 -53 -47 0 -35 20 -39 82 -16 29 10 54 19 55 19 2 0 3 11 3 25 0 40 -28 46 -87 19z"/>
 </g>

</svg>